<svg id="visual" viewBox="0 0 900 600" width="900" height="600" xmlns="http://www.w3.org/2000/svg" xmlns:xlink="http://www.w3.org/1999/xlink" version="1.1"><rect x="0" y="0" width="900" height="600" fill="#fff"></rect><defs><linearGradient id="grad1_0" x1="33.3%" y1="0%" x2="100%" y2="100%"><stop offset="20%" stop-color="#ffffff" stop-opacity="1"></stop><stop offset="80%" stop-color="#ffffff" stop-opacity="1"></stop></linearGradient></defs><defs><linearGradient id="grad2_0" x1="0%" y1="0%" x2="66.7%" y2="100%"><stop offset="20%" stop-color="#ffffff" stop-opacity="1"></stop><stop offset="80%" stop-color="#ffffff" stop-opacity="1"></stop></linearGradient></defs><g transform="translate(900, 0)"><path d="M0 378.6C-32.8 336.6 -65.7 294.6 -117.5 283.6C-169.3 272.7 -240.1 292.7 -267.7 267.7C-295.3 242.7 -279.7 172.7 -291 120.5C-302.3 68.4 -340.4 34.2 -378.6 0L0 0Z" fill="#6cb4e9"></path></g><g transform="translate(0, 600)"><path d="M0 -378.6C53.7 -378.8 107.4 -379.1 144.9 -349.8C182.3 -320.5 203.5 -261.6 217.1 -217.1C230.7 -172.6 236.7 -142.5 262.4 -108.7C288 -74.9 333.3 -37.4 378.6 0L0 0Z" fill="#6cb4e9"></path></g></svg>